<svg xmlns="http://www.w3.org/2000/svg" viewBox="0 0 1000 280"><rect width="1000" height="280" rx="24" fill="#FAF7ED"/><g transform="translate(25 20) scale(.235)"><rect x="32" y="32" width="960" height="960" rx="216" fill="#073B40"/><path fill="#FAF7ED" d="M250 280h524v100c0 31-25 56-56 56H590v308c0 25-20 45-45 45h-77c-25 0-45-20-45-45V436H250c-25 0-45-20-45-45v-66c0-25 20-45 45-45Z"/><path fill="#91C5B7" d="m250 436 173-156h167L423 436Z"/></g><text x="300" y="170" fill="#073B40" font-family="Arial,Helvetica,sans-serif" font-size="88"><tspan font-weight="700">Tura</tspan><tspan font-weight="400"> Notes</tspan></text></svg>
